nColumns=19
nRows=133
DataType=double
version=3
OpenSimVersion=4.1
endheader
time	ground_force_calcn_r_vx	ground_force_calcn_r_vy	ground_force_calcn_r_vz	ground_force_calcn_r_px	ground_force_calcn_r_py	ground_force_calcn_r_pz	ground_force_calcn_r_mx	ground_force_calcn_r_my	ground_force_calcn_r_mz	ground_force_calcn_l_vx	ground_force_calcn_l_vy	ground_force_calcn_l_vz	ground_force_calcn_l_px	ground_force_calcn_l_py	ground_force_calcn_l_pz	ground_force_calcn_l_mx	ground_force_calcn_l_my	ground_force_calcn_l_mz
0.25	0	0	0	0	0	0	0	0	0	0	0	0	0	0	0	0	0	0
0.258333	-1.71436	19.1145	-5.12855	1.09539	0	-0.216202	0.163898	-1.8274	0.490304	0	0	0	0	0	0	0	0	0
0.266667	-10.9113	54.0892	-6.05416	1.14162	0	-0.306421	-0.939882	4.65918	-0.521498	0	0	0	0	0	0	0	0	0
0.275	-24.3968	149.14	-4.82119	1.15981	0	-0.332353	-2.28248	13.9531	-0.451054	0	0	0	0	0	0	0	0	0
0.283333	-37.9528	350.548	1.03017	1.16851	0	-0.334389	-2.16023	19.9528	0.0586361	0	0	0	0	0	0	0	0	0
0.291667	-51.5148	665.751	17.5605	1.16589	0	-0.333073	-1.04957	13.564	0.357778	0	0	0	0	0	0	0	0	0
0.3	-78.7378	1002.95	46.5457	1.15679	0	-0.330906	0.484455	-6.17094	-0.286385	0	0	0	0	0	0	0	0	0
0.308333	-133.307	1226.02	76.6554	1.1454	0	-0.328122	2.80042	-25.7553	-1.61032	0	0	0	0	0	0	0	0	0
0.316667	-201.549	1308.55	88.979	1.1311	0	-0.327367	4.24624	-27.5686	-1.87461	0	0	0	0	0	0	0	0	0
0.325	-248.052	1351.2	76.8162	1.10994	0	-0.331629	1.67782	-9.13949	-0.519582	0	0	0	0	0	0	0	0	0
0.333333	-249.004	1443.34	55.7232	1.0818	0	-0.336261	-2.26462	13.1267	0.506787	0	0	0	0	0	0	0	0	0
0.341667	-208.887	1588.52	46.7721	1.05121	0	-0.33483	-2.70487	20.5697	0.60565	0	0	0	0	0	0	0	0	0
0.35	-152.792	1732.98	52.4751	1.02224	0	-0.330233	-0.984801	11.1697	0.33822	0	0	0	0	0	0	0	0	0
0.358333	-97.1783	1823.18	57.1431	0.995099	0	-0.327535	-0.020223	0.379406	0.0118916	0	0	0	0	0	0	0	0	0
0.366667	-44.7269	1843.24	49.9056	0.968297	0	-0.327591	-0.0200917	0.827997	0.022418	0	0	0	0	0	0	0	0	0
0.375	0.833645	1810.26	38.0985	0.941841	0	-0.328024	0.00393462	8.54402	0.179817	0	0	0	0	0	0	0	0	0
0.383333	36.0171	1746.89	34.7577	0.916467	0	-0.326515	0.249588	12.1055	0.240861	0	0	0	0	0	0	0	0	0
0.391667	65.203	1657.79	40.6711	0.892511	0	-0.323605	0.347999	8.84787	0.217068	0	0	0	0	0	0	0	0	0
0.4	94.7887	1537.35	46.1902	0.869111	0	-0.32191	0.347672	5.6388	0.169419	0	0	0	0	0	0	0	0	0
0.408333	124.259	1386.84	47.2145	0.8453	0	-0.322621	0.558251	6.23059	0.212118	0	0	0	0	0	0	0	0	0
0.416667	148.957	1216.29	50.1787	0.821235	0	-0.324135	0.683368	5.57998	0.230205	0	0	0	0	0	0	0	0	0
0.425	166.811	1033.43	59.6983	0.796526	0	-0.324864	-0.180248	-1.11668	-0.0645073	0	0	0	0	0	0	0	0	0
0.433333	180.48	835.434	68.7986	0.76768	0	-0.325682	-2.03415	-9.41597	-0.775412	0	0	0	0	0	0	0	0	0
0.441667	187.313	625.691	66.4536	0.729763	0	-0.328109	-3.18755	-10.6475	-1.13086	0	0	0	0	0	0	0	0	0
0.45	175.13	429.33	51.4984	0.685426	0	-0.329499	-1.62753	-3.98988	-0.478588	0	0	0	0	0	0	0	0	0
0.458333	140.147	273.488	33.8512	0.65197	0	-0.323323	1.40014	2.73228	0.338189	0	0	0	0	0	0	0	0	0
0.466667	95.2284	167.3	22.3858	0.655168	0	-0.306261	2.35575	4.13863	0.553776	0	0	0	0	0	0	0	0	0
0.475	55.9229	100.294	16.2724	0.697367	0	-0.281976	1.1177	2.00452	0.325226	0	0	0	0	0	0	0	0	0
0.483333	30.022	55.8234	9.90886	0.730104	0	-0.250786	0.410477	0.763247	0.135479	0	0	0	0	0	0	0	0	0
0.491667	14.0136	25.8112	2.43333	0.710108	0	-0.187375	1.06116	1.95452	0.184261	0	0	0	0	0	0	0	0	0
0.5	3.78084	10.3498	-1.62451	-0.000834702	0	0.000126697	8.1483e-20	2.23053e-19	-3.50106e-20	0	0	0	0	0	0	0	0	0
0.508333	0	0	0	0	0	0	0	0	0	0	0	0	0	0	0	0	0	0
0.516667	-0.905588	10.0889	3.46455	-0.000834702	0	0.000126697	-1.83426e-20	2.0435e-19	7.01739e-20	0	0	0	0	0	0	0	0	0
0.525	0	0	0	0	0	0	0	0	0	0	0	0	0	0	0	0	0	0
0.533333	0	0	0	0	0	0	0	0	0	0	0	0	0	0	0	0	0	0
0.541667	0	0	0	0	0	0	0	0	0	0	0	0	0	0	0	0	0	0
0.55	0	0	0	0	0	0	0	0	0	0	0	0	0	0	0	0	0	0
0.558333	-1.62808	11.8205	3.53242	-0.000834702	0	0.000126697	-8.40341e-20	6.1012e-19	1.82327e-19	0	0	0	0	0	0	0	0	0
0.566667	0	0	0	0	0	0	0	0	0	0	0	0	0	0	0	0	0	0
0.575	0	0	0	0	0	0	0	0	0	0	0	0	0	0	0	0	0	0
0.583333	0	0	0	0	0	0	0	0	0	-1.23485	10.2672	-3.76632	-0.000834702	0	0.000126697	2.43296e-20	-2.0229e-19	7.4206e-20
0.591667	0	0	0	0	0	0	0	0	0	-4.57431	32.1755	-5.52986	1.18966	0	-0.253734	0.00920464	-0.064745	0.0111274
0.6	0	0	0	0	0	0	0	0	0	-14.2764	93.6917	-8.55032	1.1731	0	-0.296057	0.0676803	-0.444164	0.0405345
0.608333	0	0	0	0	0	0	0	0	0	-32.8736	235.884	-13.7407	1.175	0	-0.312158	0.349545	-2.50815	0.146105
0.616667	0	0	0	0	0	0	0	0	0	-61.3691	496.165	-18.6395	1.17562	0	-0.313837	0.95219	-7.69838	0.289207
0.625	0	0	0	0	0	0	0	0	0	-102.07	838.3	-21.794	1.17216	0	-0.310039	1.66594	-13.6824	0.355714
0.633333	0	0	0	0	0	0	0	0	0	-153.302	1125.89	-27.8276	1.16481	0	-0.305979	1.74991	-12.8518	0.317647
0.641667	0	0	0	0	0	0	0	0	0	-203.636	1254.3	-43.3911	1.1539	0	-0.305205	0.0270596	-0.166674	0.00576591
0.65	0	0	0	0	0	0	0	0	0	-240.02	1274.32	-64.8892	1.13847	0	-0.309156	-3.19959	16.9873	-0.865006
0.658333	0	0	0	0	0	0	0	0	0	-259.244	1308.32	-75.2901	1.11615	0	-0.312997	-4.42868	22.35	-1.28618
0.666667	0	0	0	0	0	0	0	0	0	-258.907	1412.91	-61.4175	1.08733	0	-0.310862	-1.39577	7.61704	-0.331103
0.675	0	0	0	0	0	0	0	0	0	-231.498	1558.62	-32.6983	1.05633	0	-0.306306	2.39944	-16.1548	0.338913
0.683333	0	0	0	0	0	0	0	0	0	-179.644	1686.88	-13.338	1.02656	0	-0.305631	2.90495	-27.2779	0.215684
0.691667	0	0	0	0	0	0	0	0	0	-119.332	1763.73	-14.688	0.998812	0	-0.309075	1.15214	-17.0287	0.141811
0.7	0	0	0	0	0	0	0	0	0	-66.1703	1792.1	-24.0521	0.972824	0	-0.312623	-0.0268297	0.726635	-0.00975229
0.708333	0	0	0	0	0	0	0	0	0	-25.4448	1790.13	-24.0273	0.947686	0	-0.313428	-0.101802	7.16212	-0.0961306
0.716667	0	0	0	0	0	0	0	0	0	9.40156	1762.72	-14.5908	0.92252	0	-0.312603	-0.00160602	-0.301117	0.00249247
0.725	0	0	0	0	0	0	0	0	0	45.6986	1698.93	-9.32238	0.897287	0	-0.313012	-0.248139	-9.22505	0.0506197
0.733333	0	0	0	0	0	0	0	0	0	81.8834	1595.62	-15.1551	0.872054	0	-0.31509	-0.523509	-10.2013	0.0968921
0.741667	0	0	0	0	0	0	0	0	0	113.049	1464.43	-25.1406	0.847184	0	-0.316632	-0.492763	-6.38324	0.109584
0.75	0	0	0	0	0	0	0	0	0	138.037	1315.29	-30.9563	0.823194	0	-0.315824	-0.497869	-4.74397	0.111652
0.758333	0	0	0	0	0	0	0	0	0	158.225	1143.64	-34.0787	0.799673	0	-0.313357	-0.673974	-4.87142	0.145161
0.766667	0	0	0	0	0	0	0	0	0	173.244	939.335	-40.4313	0.773613	0	-0.311167	-0.231018	-1.25259	0.0539145
0.775	0	0	0	0	0	0	0	0	0	180.5	711.452	-48.8931	0.739925	0	-0.309338	1.5914	6.2726	-0.431071
0.783333	0	0	0	0	0	0	0	0	0	171.926	495.062	-50.9749	0.699381	0	-0.305789	3.59358	10.3477	-1.06547
0.791667	0	0	0	0	0	0	0	0	0	142.541	321.596	-41.338	0.66173	0	-0.302913	2.70158	6.09521	-0.78348
0.8	0	0	0	0	0	0	0	0	0	100.315	196.189	-24.7076	0.64072	0	-0.310503	-1.30657	-2.55529	0.321808
0.808333	0	0	0	0	0	0	0	0	0	59.1418	109.479	-10.9114	0.65703	0	-0.333614	-4.59496	-8.50586	0.847748
0.816667	0	0	0	0	0	0	0	0	0	29.4977	52.3931	-4.89183	0.716313	0	-0.365005	-4.52991	-8.0459	0.751229
0.825	0	0	0	0	0	0	0	0	0	13.1766	21.223	-3.5973	0.798941	0	-0.362922	-2.27077	-3.65744	0.619936
0.833333	0	0	0	0	0	0	0	0	0	5.543	11.433	-1.90004	-0.000834702	0	0.000126697	-1.14469e-19	-2.36105e-19	3.9238e-20
0.841667	0	0	0	0	0	0	0	0	0	1.34932	11.5344	1.1043	-0.000834702	0	0.000126697	9.50723e-22	8.12706e-21	7.78084e-22
0.85	0	0	0	0	0	0	0	0	0	-2.15846	10.2651	2.74768	-0.000834702	0	0.000126697	4.47995e-20	-2.13056e-19	-5.70288e-20
0.858333	0	0	0	0	0	0	0	0	0	0	0	0	0	0	0	0	0	0
0.866667	0	0	0	0	0	0	0	0	0	0	0	0	0	0	0	0	0	0
0.875	0	0	0	0	0	0	0	0	0	0	0	0	0	0	0	0	0	0
0.883333	0	0	0	0	0	0	0	0	0	0	0	0	0	0	0	0	0	0
0.891667	0	0	0	0	0	0	0	0	0	0.209006	10.0994	2.4375	-0.000834702	0	0.000126697	1.65318e-22	7.98836e-21	1.928e-21
0.9	0	0	0	0	0	0	0	0	0	0	0	0	0	0	0	0	0	0
0.908333	0	0	0	0	0	0	0	0	0	0	0	0	0	0	0	0	0	0
0.916667	0	0	0	0	0	0	0	0	0	0	0	0	0	0	0	0	0	0
0.925	-0.185387	12.4228	0.0170257	-0.000834702	0	0.000126697	3.23555e-21	-2.16816e-19	-2.97149e-22	0	0	0	0	0	0	0	0	0
0.933333	1.41345	29.0259	-1.35591	1.12024	0	-0.229067	-0.0576241	-1.18334	0.0552784	0	0	0	0	0	0	0	0	0
0.941667	3.32983	78.9575	-3.56405	1.13267	0	-0.27993	0.236435	5.60639	-0.253066	0	0	0	0	0	0	0	0	0
0.95	5.22642	199.209	-2.94	1.11738	0	-0.298154	0.354023	13.4939	-0.199148	0	0	0	0	0	0	0	0	0
0.958333	2.41848	420.594	4.82863	1.10297	0	-0.305264	0.0853715	14.8468	0.170449	0	0	0	0	0	0	0	0	0
0.966667	-16.5782	724.665	21.6745	1.09351	0	-0.307779	-0.112053	4.89803	0.146499	0	0	0	0	0	0	0	0	0
0.975	-61.4686	1016.8	43.8225	1.08661	0	-0.30748	0.736162	-12.1775	-0.524828	0	0	0	0	0	0	0	0	0
0.983333	-125.019	1202.34	60.693	1.07792	0	-0.30621	2.52709	-24.3037	-1.22682	0	0	0	0	0	0	0	0	0
0.991667	-179.177	1300.5	61.4345	1.06278	0	-0.306452	2.99596	-21.7452	-1.02722	0	0	0	0	0	0	0	0	0
1	-196.122	1400.37	46.2365	1.03877	0	-0.308605	0.996757	-7.11717	-0.234989	0	0	0	0	0	0	0	0	0
1.00833	-171.781	1540.64	27.9557	1.00948	0	-0.309259	-0.761708	6.83144	0.12396	0	0	0	0	0	0	0	0	0
1.01667	-125.079	1692.14	18.6625	0.980295	0	-0.307058	-0.701935	9.49622	0.104733	0	0	0	0	0	0	0	0	0
1.025	-76.7781	1807.21	17.3141	0.953571	0	-0.304194	-0.121651	2.86342	0.0274332	0	0	0	0	0	0	0	0	0
1.03333	-32.1394	1858.37	14.57	0.928761	0	-0.30257	0.0441329	-2.55186	-0.020007	0	0	0	0	0	0	0	0	0
1.04167	10.2664	1846.57	6.97351	0.904798	0	-0.302087	-0.00495016	-0.890365	-0.00336244	0	0	0	0	0	0	0	0	0
1.05	46.4871	1787.02	0.702811	0.881804	0	-0.301283	0.106441	4.09173	0.00160922	0	0	0	0	0	0	0	0	0
1.05833	74.2249	1691.14	1.74884	0.860292	0	-0.299479	0.28065	6.39433	0.00661252	0	0	0	0	0	0	0	0	0
1.06667	97.1213	1562.03	8.45395	0.839356	0	-0.297772	0.328352	5.28098	0.0285814	0	0	0	0	0	0	0	0	0
1.075	119.806	1402.01	16.1795	0.817323	0	-0.297578	0.294788	3.44971	0.0398105	0	0	0	0	0	0	0	0	0
1.08333	144.653	1217.11	24.552	0.793103	0	-0.299037	0.157219	1.32284	0.0266848	0	0	0	0	0	0	0	0	0
1.09167	170.293	1014.07	35.6187	0.765741	0	-0.301286	-0.480193	-2.85948	-0.100437	0	0	0	0	0	0	0	0	0
1.1	194.271	801.534	47.0411	0.733449	0	-0.303911	-1.97049	-8.12992	-0.477136	0	0	0	0	0	0	0	0	0
1.10833	205.32	596.3	51.9907	0.697648	0	-0.307004	-3.45891	-10.0455	-0.875856	0	0	0	0	0	0	0	0	0
1.11667	188.22	416.574	46.6082	0.665132	0	-0.30824	-2.94818	-6.525	-0.730046	0	0	0	0	0	0	0	0	0
1.125	144.986	271.608	34.4844	0.643212	0	-0.302332	-0.395528	-0.740962	-0.0940752	0	0	0	0	0	0	0	0	0
1.13333	93.3631	164.432	22.439	0.639319	0	-0.285276	1.77848	3.13227	0.427441	0	0	0	0	0	0	0	0	0
1.14167	50.9241	91.909	14.0189	0.649733	0	-0.259712	1.99463	3.59995	0.5491	0	0	0	0	0	0	0	0	0
1.15	23.9806	46.2074	8.46615	0.657488	0	-0.232329	0.956504	1.84305	0.337685	0	0	0	0	0	0	0	0	0
1.15833	9.24916	20.3018	4.35171	0.714787	0	-0.202032	-0.0412052	-0.0904451	-0.0193869	0	0	0	0	0	0	0	0	0
1.16667	0	0	0	0	0	0	0	0	0	0	0	0	0	0	0	0	0	0
1.175	0	0	0	0	0	0	0	0	0	0	0	0	0	0	0	0	0	0
1.18333	0.769267	10.404	2.37566	-0.000834702	0	0.000126697	4.67708e-20	6.32557e-19	1.44438e-19	0	0	0	0	0	0	0	0	0
1.19167	-0.120381	10.5899	2.56844	-0.000834702	0	0.000126697	6.50689e-22	-5.72406e-20	-1.3883e-20	0	0	0	0	0	0	0	0	0
1.2	0	0	0	0	0	0	0	0	0	0	0	0	0	0	0	0	0	0
1.20833	0	0	0	0	0	0	0	0	0	0	0	0	0	0	0	0	0	0
1.21667	0	0	0	0	0	0	0	0	0	0	0	0	0	0	0	0	0	0
1.225	0	0	0	0	0	0	0	0	0	0	0	0	0	0	0	0	0	0
1.23333	0	0	0	0	0	0	0	0	0	0	0	0	0	0	0	0	0	0
1.24167	0	0	0	0	0	0	0	0	0	-0.0847019	12.4617	-1.53155	-0.000834702	0	0.000126697	-1.46282e-21	2.15216e-19	-2.64501e-20
1.25	0	0	0	0	0	0	0	0	0	-5.15003	27.0241	-4.77789	1.10915	0	-0.257718	0.116874	-0.613279	0.108428
1.25833	0	0	0	0	0	0	0	0	0	-14.5216	77.7068	-8.15697	1.13393	0	-0.324977	-0.423204	2.26462	-0.23772
1.26667	0	0	0	0	0	0	0	0	0	-29.7785	207.957	-11.1086	1.14981	0	-0.335436	-0.292736	2.04431	-0.109203
1.275	0	0	0	0	0	0	0	0	0	-49.9892	456.77	-12.2152	1.15212	0	-0.333855	0.403861	-3.69023	0.0986862
1.28333	0	0	0	0	0	0	0	0	0	-77.3659	793.178	-11.077	1.14646	0	-0.329419	1.19177	-12.2184	0.170633
1.29167	0	0	0	0	0	0	0	0	0	-117.517	1084.15	-12.1218	1.13691	0	-0.324873	1.60182	-14.7774	0.165225
1.3	0	0	0	0	0	0	0	0	0	-166.726	1215.55	-22.5825	1.12444	0	-0.323379	0.574746	-4.19032	0.0778475
1.30833	0	0	0	0	0	0	0	0	0	-211.723	1228.69	-41.3375	1.1084	0	-0.327588	-2.45857	14.2678	-0.480019
1.31667	0	0	0	0	0	0	0	0	0	-241.63	1250.95	-52.7435	1.08741	0	-0.333416	-4.63043	23.9723	-1.01074
1.325	0	0	0	0	0	0	0	0	0	-246.423	1350.16	-40.9924	1.06122	0	-0.332692	-2.46371	13.4988	-0.409839
1.33333	0	0	0	0	0	0	0	0	0	-217.909	1503.41	-11.1168	1.03201	0	-0.327839	1.40999	-9.72784	0.0719317
1.34167	0	0	0	0	0	0	0	0	0	-163.021	1647.1	13.8891	1.0022	0	-0.326457	2.42028	-24.4536	-0.206203
1.35	0	0	0	0	0	0	0	0	0	-102.554	1734.92	19.6118	0.973369	0	-0.329801	1.09098	-18.4564	-0.208633
